<svg xmlns="http://www.w3.org/2000/svg" xmlns:xlink="http://www.w3.org/1999/xlink" width="400" zoomAndPan="magnify" viewBox="0 0 300 74.999997" height="100" preserveAspectRatio="xMidYMid meet" version="1.0"><defs><g/><clipPath id="c42175929e"><rect x="0" width="202" y="0" height="52"/></clipPath></defs><path fill="#1e3a8a" d="M 38.65625 21.5625 C 38.515625 21.421875 38.355469 21.3125 38.167969 21.238281 C 37.984375 21.160156 37.792969 21.125 37.59375 21.125 C 37.394531 21.125 37.203125 21.160156 37.015625 21.238281 C 36.832031 21.3125 36.671875 21.421875 36.527344 21.5625 C 35.796875 22.296875 35.144531 23.089844 34.566406 23.953125 C 33.992188 24.8125 33.507812 25.722656 33.109375 26.675781 C 32.714844 27.632812 32.417969 28.617188 32.214844 29.632812 C 32.011719 30.648438 31.910156 31.675781 31.910156 32.710938 C 31.910156 33.746094 32.011719 34.769531 32.214844 35.785156 C 32.417969 36.800781 32.714844 37.785156 33.109375 38.742188 C 33.507812 39.699219 33.992188 40.605469 34.566406 41.464844 C 35.144531 42.328125 35.796875 43.125 36.527344 43.855469 C 36.667969 43.996094 36.832031 44.105469 37.015625 44.179688 C 37.203125 44.257812 37.394531 44.296875 37.59375 44.296875 C 37.792969 44.292969 37.984375 44.257812 38.167969 44.179688 C 38.351562 44.105469 38.515625 43.996094 38.65625 43.855469 C 38.796875 43.710938 38.90625 43.550781 38.984375 43.367188 C 39.058594 43.179688 39.097656 42.988281 39.097656 42.789062 C 39.097656 42.589844 39.058594 42.398438 38.984375 42.214844 C 38.90625 42.03125 38.800781 41.867188 38.65625 41.726562 C 38.066406 41.132812 37.539062 40.488281 37.070312 39.792969 C 36.605469 39.097656 36.214844 38.363281 35.894531 37.589844 C 35.574219 36.816406 35.332031 36.019531 35.167969 35.195312 C 35.003906 34.375 34.921875 33.546875 34.921875 32.710938 C 34.921875 31.871094 35.003906 31.042969 35.167969 30.222656 C 35.332031 29.402344 35.574219 28.601562 35.894531 27.828125 C 36.214844 27.054688 36.605469 26.320312 37.070312 25.625 C 37.539062 24.929688 38.066406 24.285156 38.65625 23.691406 C 38.800781 23.550781 38.90625 23.390625 38.984375 23.203125 C 39.0625 23.019531 39.097656 22.828125 39.097656 22.628906 C 39.097656 22.429688 39.0625 22.238281 38.984375 22.050781 C 38.90625 21.867188 38.800781 21.703125 38.65625 21.5625 Z M 38.65625 21.5625 " fill-opacity="1" fill-rule="nonzero"/><path fill="#1e3a8a" d="M 52.890625 28.449219 C 53.046875 28.21875 53.132812 27.960938 53.148438 27.683594 C 53.164062 27.40625 53.105469 27.144531 52.972656 26.898438 C 52.84375 26.652344 52.660156 26.457031 52.421875 26.3125 C 52.179688 26.167969 51.921875 26.097656 51.644531 26.097656 L 42.832031 26.097656 C 42.554688 26.097656 42.296875 26.167969 42.058594 26.3125 C 41.816406 26.457031 41.632812 26.652344 41.503906 26.898438 C 41.371094 27.144531 41.316406 27.40625 41.328125 27.683594 C 41.34375 27.960938 41.429688 28.21875 41.585938 28.449219 L 45.679688 34.476562 L 40.351562 58.125 C 40.238281 58.621094 40.347656 59.058594 40.679688 59.441406 L 46.101562 65.699219 C 46.242188 65.867188 46.414062 65.996094 46.613281 66.085938 C 46.8125 66.175781 47.019531 66.222656 47.238281 66.222656 C 47.457031 66.222656 47.664062 66.175781 47.863281 66.085938 C 48.0625 65.996094 48.234375 65.867188 48.375 65.699219 L 53.796875 59.441406 C 54.128906 59.058594 54.238281 58.621094 54.128906 58.125 L 48.796875 34.476562 Z M 52.890625 28.449219 " fill-opacity="1" fill-rule="nonzero"/><path fill="#1e3a8a" d="M 81.417969 62.210938 C 81.410156 63.378906 81.003906 64.382812 80.1875 65.222656 C 79.988281 65.417969 79.769531 65.589844 79.539062 65.746094 C 79.304688 65.898438 79.058594 66.027344 78.800781 66.132812 C 78.542969 66.238281 78.277344 66.316406 78.003906 66.371094 C 77.730469 66.425781 77.453125 66.453125 77.175781 66.453125 C 76.898438 66.453125 76.621094 66.425781 76.347656 66.371094 C 76.074219 66.316406 75.808594 66.238281 75.550781 66.132812 C 75.292969 66.027344 75.046875 65.898438 74.8125 65.746094 C 74.578125 65.589844 74.363281 65.417969 74.164062 65.222656 L 59.136719 50.191406 C 57.800781 51.074219 56.378906 51.785156 54.871094 52.324219 L 54.21875 49.390625 C 55.191406 49.007812 56.117188 48.539062 57.003906 47.984375 C 57.871094 47.480469 58.675781 46.886719 59.410156 46.203125 C 60.0625 45.683594 60.648438 45.097656 61.167969 44.445312 C 61.851562 43.710938 62.445312 42.90625 62.949219 42.039062 C 63.53125 41.085938 64.019531 40.089844 64.414062 39.042969 C 64.808594 38 65.101562 36.929688 65.296875 35.832031 C 65.488281 34.734375 65.582031 33.625 65.566406 32.511719 C 65.554688 31.394531 65.4375 30.289062 65.21875 29.195312 C 65 28.101562 64.679688 27.039062 64.261719 26.003906 C 63.84375 24.972656 63.332031 23.984375 62.730469 23.046875 C 62.128906 22.109375 61.441406 21.234375 60.675781 20.421875 C 59.910156 19.613281 59.074219 18.878906 58.171875 18.226562 C 57.269531 17.570312 56.3125 17.003906 55.304688 16.53125 C 54.292969 16.054688 53.25 15.675781 52.171875 15.394531 C 51.089844 15.117188 49.992188 14.9375 48.882812 14.863281 C 47.769531 14.789062 46.65625 14.816406 45.550781 14.949219 C 44.441406 15.082031 43.355469 15.316406 42.292969 15.648438 C 41.230469 15.984375 40.207031 16.417969 39.222656 16.945312 C 38.238281 17.46875 37.3125 18.082031 36.445312 18.785156 C 35.574219 19.484375 34.78125 20.257812 34.054688 21.105469 C 33.332031 21.957031 32.691406 22.863281 32.140625 23.832031 C 31.585938 24.800781 31.125 25.8125 30.761719 26.867188 C 30.398438 27.921875 30.132812 29 29.96875 30.101562 C 29.808594 31.207031 29.746094 32.316406 29.792969 33.429688 C 29.835938 34.546875 29.984375 35.644531 30.234375 36.734375 C 30.484375 37.820312 30.832031 38.875 31.28125 39.894531 C 31.730469 40.917969 32.265625 41.890625 32.894531 42.8125 C 33.527344 43.730469 34.234375 44.585938 35.023438 45.375 C 36.5625 46.929688 38.335938 48.140625 40.34375 49.011719 L 39.664062 52 C 37.097656 50.96875 34.839844 49.472656 32.890625 47.507812 C 32.429688 47.046875 31.988281 46.5625 31.570312 46.058594 C 31.152344 45.554688 30.761719 45.03125 30.390625 44.488281 C 30.023438 43.949219 29.679688 43.390625 29.363281 42.816406 C 29.046875 42.246094 28.761719 41.65625 28.5 41.058594 C 28.238281 40.457031 28.003906 39.847656 27.800781 39.222656 C 27.597656 38.601562 27.425781 37.972656 27.28125 37.332031 C 27.136719 36.695312 27.023438 36.050781 26.9375 35.402344 C 26.855469 34.75 26.800781 34.101562 26.777344 33.445312 C 26.757812 32.792969 26.765625 32.136719 26.804688 31.484375 C 26.84375 30.832031 26.910156 30.179688 27.011719 29.535156 C 27.109375 28.886719 27.242188 28.246094 27.402344 27.609375 C 27.5625 26.976562 27.75 26.351562 27.96875 25.734375 C 28.1875 25.117188 28.4375 24.511719 28.710938 23.917969 C 28.988281 23.324219 29.292969 22.746094 29.621094 22.179688 C 29.953125 21.613281 30.308594 21.066406 30.691406 20.535156 C 31.070312 20.003906 31.476562 19.488281 31.90625 18.996094 C 32.335938 18.503906 32.789062 18.03125 33.265625 17.578125 C 33.738281 17.128906 34.234375 16.699219 34.746094 16.296875 C 35.261719 15.890625 35.792969 15.511719 36.34375 15.15625 C 36.894531 14.800781 37.460938 14.472656 38.042969 14.171875 C 38.621094 13.871094 39.214844 13.597656 39.824219 13.351562 C 40.429688 13.105469 41.046875 12.890625 41.675781 12.703125 C 42.300781 12.511719 42.9375 12.355469 43.578125 12.226562 C 44.21875 12.097656 44.867188 12 45.519531 11.933594 C 46.167969 11.867188 46.820312 11.832031 47.476562 11.824219 C 48.132812 11.820312 48.785156 11.84375 49.4375 11.898438 C 50.089844 11.953125 50.738281 12.039062 51.382812 12.15625 C 52.027344 12.273438 52.664062 12.417969 53.292969 12.59375 C 53.925781 12.769531 54.542969 12.976562 55.15625 13.210938 C 55.765625 13.445312 56.367188 13.707031 56.953125 14 C 57.539062 14.289062 58.109375 14.605469 58.667969 14.953125 C 59.222656 15.296875 59.761719 15.667969 60.285156 16.0625 C 60.808594 16.457031 61.308594 16.875 61.792969 17.316406 C 62.273438 17.761719 62.734375 18.222656 63.175781 18.710938 C 63.613281 19.195312 64.027344 19.699219 64.417969 20.226562 C 64.8125 20.75 65.175781 21.292969 65.519531 21.851562 C 65.859375 22.410156 66.171875 22.984375 66.457031 23.570312 C 66.746094 24.160156 67.003906 24.761719 67.234375 25.375 C 67.464844 25.988281 67.664062 26.609375 67.835938 27.242188 C 68.007812 27.871094 68.152344 28.511719 68.261719 29.15625 C 68.375 29.800781 68.457031 30.449219 68.507812 31.101562 C 68.558594 31.753906 68.578125 32.410156 68.566406 33.0625 C 68.554688 33.71875 68.515625 34.371094 68.445312 35.019531 C 68.371094 35.671875 68.269531 36.316406 68.136719 36.957031 C 68.003906 37.597656 67.839844 38.234375 67.648438 38.859375 C 67.457031 39.484375 67.238281 40.101562 66.988281 40.703125 C 66.738281 41.308594 66.460938 41.902344 66.152344 42.480469 C 65.847656 43.058594 65.515625 43.625 65.15625 44.171875 L 80.1875 59.199219 C 81.003906 60.039062 81.410156 61.042969 81.417969 62.210938 Z M 81.417969 62.210938 " fill-opacity="1" fill-rule="nonzero"/><g transform="matrix(1, 0, 0, 1, 71, 7)"><g clip-path="url(#c42175929e)"><g fill="#1e3a8a" fill-opacity="1"><g transform="translate(1.27411, 40.583244)"><g><path d="M 14.765625 0.390625 C 12.359375 0.390625 10.222656 -0.132812 8.359375 -1.1875 C 6.492188 -2.25 5.035156 -3.8125 3.984375 -5.875 C 2.929688 -7.945312 2.40625 -10.460938 2.40625 -13.421875 C 2.40625 -16.390625 2.929688 -18.90625 3.984375 -20.96875 C 5.035156 -23.039062 6.492188 -24.601562 8.359375 -25.65625 C 10.222656 -26.71875 12.359375 -27.25 14.765625 -27.25 C 17.316406 -27.25 19.457031 -26.757812 21.1875 -25.78125 C 22.925781 -24.800781 24.175781 -23.316406 24.9375 -21.328125 L 21.96875 -19.46875 L 21.515625 -19.46875 C 20.867188 -20.9375 20 -21.984375 18.90625 -22.609375 C 17.820312 -23.234375 16.441406 -23.546875 14.765625 -23.546875 C 12.347656 -23.546875 10.421875 -22.734375 8.984375 -21.109375 C 7.546875 -19.484375 6.828125 -16.921875 6.828125 -13.421875 C 6.828125 -9.953125 7.546875 -7.40625 8.984375 -5.78125 C 10.421875 -4.15625 12.347656 -3.34375 14.765625 -3.34375 C 16.609375 -3.34375 18.109375 -3.765625 19.265625 -4.609375 C 20.421875 -5.460938 21.242188 -6.816406 21.734375 -8.671875 L 22.1875 -8.671875 L 25.203125 -7.125 C 24.515625 -4.664062 23.296875 -2.796875 21.546875 -1.515625 C 19.804688 -0.242188 17.546875 0.390625 14.765625 0.390625 Z M 14.765625 0.390625 "/></g></g></g><g fill="#1e3a8a" fill-opacity="1"><g transform="translate(27.615386, 40.583244)"><g><path d="M 8.140625 0.390625 C 6.148438 0.390625 4.59375 -0.140625 3.46875 -1.203125 C 2.34375 -2.265625 1.78125 -3.769531 1.78125 -5.71875 C 1.78125 -6.914062 2.03125 -7.921875 2.53125 -8.734375 C 3.03125 -9.554688 3.8125 -10.226562 4.875 -10.75 C 5.945312 -11.269531 7.332031 -11.671875 9.03125 -11.953125 C 10.375 -12.179688 11.394531 -12.425781 12.09375 -12.6875 C 12.789062 -12.957031 13.257812 -13.257812 13.5 -13.59375 C 13.75 -13.9375 13.875 -14.363281 13.875 -14.875 C 13.875 -15.664062 13.597656 -16.269531 13.046875 -16.6875 C 12.503906 -17.101562 11.617188 -17.3125 10.390625 -17.3125 C 8.078125 -17.3125 6.113281 -16.347656 4.5 -14.421875 L 4.140625 -14.421875 L 2.328125 -17.0625 C 3.273438 -18.175781 4.445312 -19.050781 5.84375 -19.6875 C 7.25 -20.332031 8.8125 -20.65625 10.53125 -20.65625 C 13.0625 -20.65625 14.910156 -20.109375 16.078125 -19.015625 C 17.253906 -17.921875 17.84375 -16.390625 17.84375 -14.421875 L 17.84375 -4.640625 C 17.84375 -3.628906 18.273438 -3.125 19.140625 -3.125 C 19.460938 -3.125 19.769531 -3.175781 20.0625 -3.28125 L 20.3125 -3.21875 L 20.671875 -0.40625 C 20.421875 -0.226562 20.078125 -0.09375 19.640625 0 C 19.210938 0.09375 18.753906 0.140625 18.265625 0.140625 C 17.097656 0.140625 16.203125 -0.09375 15.578125 -0.5625 C 14.960938 -1.039062 14.539062 -1.769531 14.3125 -2.75 L 13.921875 -2.796875 C 13.390625 -1.722656 12.644531 -0.921875 11.6875 -0.390625 C 10.738281 0.128906 9.554688 0.390625 8.140625 0.390625 Z M 9.28125 -2.71875 C 10.21875 -2.71875 11.039062 -2.929688 11.75 -3.359375 C 12.46875 -3.796875 13.015625 -4.421875 13.390625 -5.234375 C 13.773438 -6.046875 13.96875 -6.992188 13.96875 -8.078125 L 13.96875 -10.390625 L 13.609375 -10.46875 C 13.234375 -10.1875 12.757812 -9.953125 12.1875 -9.765625 C 11.613281 -9.578125 10.800781 -9.394531 9.75 -9.21875 C 8.332031 -9.007812 7.328125 -8.640625 6.734375 -8.109375 C 6.140625 -7.578125 5.84375 -6.828125 5.84375 -5.859375 C 5.84375 -4.828125 6.140625 -4.046875 6.734375 -3.515625 C 7.335938 -2.984375 8.1875 -2.71875 9.28125 -2.71875 Z M 9.28125 -2.71875 "/></g></g></g><g fill="#1e3a8a" fill-opacity="1"><g transform="translate(48.776579, 40.583244)"><g><path d="M 3.234375 0 L 3.234375 -20.265625 L 7.125 -20.265625 L 7.125 -17.171875 L 7.515625 -17.078125 C 8.003906 -18.242188 8.671875 -19.097656 9.515625 -19.640625 C 10.359375 -20.179688 11.378906 -20.453125 12.578125 -20.453125 C 13.867188 -20.453125 14.828125 -20.226562 15.453125 -19.78125 L 14.640625 -16.3125 L 14.25 -16.234375 C 13.90625 -16.398438 13.554688 -16.519531 13.203125 -16.59375 C 12.847656 -16.675781 12.441406 -16.71875 11.984375 -16.71875 C 10.460938 -16.71875 9.296875 -16.164062 8.484375 -15.0625 C 7.679688 -13.957031 7.28125 -12.175781 7.28125 -9.71875 L 7.28125 0 Z M 3.234375 0 "/></g></g></g><g fill="#1e3a8a" fill-opacity="1"><g transform="translate(64.022791, 40.583244)"><g><path d="M 19.671875 -9.21875 L 6.1875 -9.21875 C 6.425781 -5.15625 8.3125 -3.125 11.84375 -3.125 C 13.15625 -3.125 14.210938 -3.359375 15.015625 -3.828125 C 15.816406 -4.296875 16.453125 -5.03125 16.921875 -6.03125 L 17.3125 -6.03125 L 19.96875 -4.375 C 19.34375 -2.925781 18.367188 -1.769531 17.046875 -0.90625 C 15.734375 -0.0390625 14 0.390625 11.84375 0.390625 C 9.820312 0.390625 8.078125 0 6.609375 -0.78125 C 5.140625 -1.570312 4.003906 -2.75 3.203125 -4.3125 C 2.410156 -5.882812 2.015625 -7.820312 2.015625 -10.125 C 2.015625 -12.425781 2.429688 -14.363281 3.265625 -15.9375 C 4.097656 -17.519531 5.238281 -18.703125 6.6875 -19.484375 C 8.132812 -20.265625 9.765625 -20.65625 11.578125 -20.65625 C 14.304688 -20.65625 16.414062 -19.90625 17.90625 -18.40625 C 19.394531 -16.914062 20.144531 -14.71875 20.15625 -11.8125 C 20.15625 -10.71875 20.125 -9.925781 20.0625 -9.4375 Z M 16.234375 -12.109375 C 16.191406 -13.953125 15.773438 -15.296875 14.984375 -16.140625 C 14.191406 -16.992188 13.054688 -17.421875 11.578125 -17.421875 C 10.078125 -17.421875 8.875 -16.992188 7.96875 -16.140625 C 7.070312 -15.296875 6.507812 -13.953125 6.28125 -12.109375 Z M 16.234375 -12.109375 "/></g></g></g><g fill="#1e3a8a" fill-opacity="1"><g transform="translate(85.845271, 40.583244)"><g><path d="M 19.671875 -9.21875 L 6.1875 -9.21875 C 6.425781 -5.15625 8.3125 -3.125 11.84375 -3.125 C 13.15625 -3.125 14.210938 -3.359375 15.015625 -3.828125 C 15.816406 -4.296875 16.453125 -5.03125 16.921875 -6.03125 L 17.3125 -6.03125 L 19.96875 -4.375 C 19.34375 -2.925781 18.367188 -1.769531 17.046875 -0.90625 C 15.734375 -0.0390625 14 0.390625 11.84375 0.390625 C 9.820312 0.390625 8.078125 0 6.609375 -0.78125 C 5.140625 -1.570312 4.003906 -2.75 3.203125 -4.3125 C 2.410156 -5.882812 2.015625 -7.820312 2.015625 -10.125 C 2.015625 -12.425781 2.429688 -14.363281 3.265625 -15.9375 C 4.097656 -17.519531 5.238281 -18.703125 6.6875 -19.484375 C 8.132812 -20.265625 9.765625 -20.65625 11.578125 -20.65625 C 14.304688 -20.65625 16.414062 -19.90625 17.90625 -18.40625 C 19.394531 -16.914062 20.144531 -14.71875 20.15625 -11.8125 C 20.15625 -10.71875 20.125 -9.925781 20.0625 -9.4375 Z M 16.234375 -12.109375 C 16.191406 -13.953125 15.773438 -15.296875 14.984375 -16.140625 C 14.191406 -16.992188 13.054688 -17.421875 11.578125 -17.421875 C 10.078125 -17.421875 8.875 -16.992188 7.96875 -16.140625 C 7.070312 -15.296875 6.507812 -13.953125 6.28125 -12.109375 Z M 16.234375 -12.109375 "/></g></g></g><g fill="#1e3a8a" fill-opacity="1"><g transform="translate(107.667751, 40.583244)"><g><path d="M 3.234375 0 L 3.234375 -20.265625 L 7.125 -20.265625 L 7.125 -17.171875 L 7.515625 -17.078125 C 8.003906 -18.242188 8.671875 -19.097656 9.515625 -19.640625 C 10.359375 -20.179688 11.378906 -20.453125 12.578125 -20.453125 C 13.867188 -20.453125 14.828125 -20.226562 15.453125 -19.78125 L 14.640625 -16.3125 L 14.25 -16.234375 C 13.90625 -16.398438 13.554688 -16.519531 13.203125 -16.59375 C 12.847656 -16.675781 12.441406 -16.71875 11.984375 -16.71875 C 10.460938 -16.71875 9.296875 -16.164062 8.484375 -15.0625 C 7.679688 -13.957031 7.28125 -12.175781 7.28125 -9.71875 L 7.28125 0 Z M 3.234375 0 "/></g></g></g><g fill="#1e3a8a" fill-opacity="1"><g transform="translate(123.446806, 40.583244)"><g><path d="M 13.59375 0.390625 C 11.34375 0.390625 9.378906 -0.125 7.703125 -1.15625 C 6.023438 -2.1875 4.722656 -3.734375 3.796875 -5.796875 C 2.867188 -7.859375 2.40625 -10.398438 2.40625 -13.421875 C 2.40625 -16.460938 2.925781 -19.019531 3.96875 -21.09375 C 5.019531 -23.164062 6.476562 -24.707031 8.34375 -25.71875 C 10.21875 -26.738281 12.378906 -27.25 14.828125 -27.25 C 17.398438 -27.25 19.550781 -26.78125 21.28125 -25.84375 C 23.019531 -24.90625 24.242188 -23.503906 24.953125 -21.640625 L 21.96875 -19.859375 L 21.515625 -19.859375 C 20.890625 -21.160156 20.03125 -22.097656 18.9375 -22.671875 C 17.851562 -23.253906 16.484375 -23.546875 14.828125 -23.546875 C 12.253906 -23.546875 10.273438 -22.738281 8.890625 -21.125 C 7.515625 -19.519531 6.828125 -16.953125 6.828125 -13.421875 C 6.828125 -9.898438 7.484375 -7.332031 8.796875 -5.71875 C 10.109375 -4.113281 11.992188 -3.3125 14.453125 -3.3125 C 16.648438 -3.3125 18.28125 -3.804688 19.34375 -4.796875 C 20.40625 -5.785156 20.9375 -7.316406 20.9375 -9.390625 L 20.9375 -11.15625 L 13.9375 -11.15625 L 13.9375 -14.5625 L 25.109375 -14.5625 L 25.109375 0 L 21.125 0 L 21.125 -3.59375 L 20.734375 -3.671875 C 20.109375 -2.335938 19.195312 -1.328125 18 -0.640625 C 16.800781 0.046875 15.332031 0.390625 13.59375 0.390625 Z M 13.59375 0.390625 "/></g></g></g><g fill="#1e3a8a" fill-opacity="1"><g transform="translate(151.422938, 40.583244)"><g><path d="M 11.703125 0.390625 C 9.753906 0.390625 8.050781 -0.015625 6.59375 -0.828125 C 5.132812 -1.640625 4.003906 -2.832031 3.203125 -4.40625 C 2.410156 -5.988281 2.015625 -7.894531 2.015625 -10.125 C 2.015625 -12.363281 2.410156 -14.269531 3.203125 -15.84375 C 4.003906 -17.414062 5.132812 -18.609375 6.59375 -19.421875 C 8.050781 -20.242188 9.753906 -20.65625 11.703125 -20.65625 C 13.648438 -20.65625 15.351562 -20.242188 16.8125 -19.421875 C 18.269531 -18.609375 19.398438 -17.414062 20.203125 -15.84375 C 21.003906 -14.269531 21.40625 -12.363281 21.40625 -10.125 C 21.40625 -7.894531 21.003906 -5.988281 20.203125 -4.40625 C 19.398438 -2.832031 18.269531 -1.640625 16.8125 -0.828125 C 15.351562 -0.015625 13.648438 0.390625 11.703125 0.390625 Z M 11.703125 -3.125 C 15.367188 -3.125 17.203125 -5.457031 17.203125 -10.125 C 17.203125 -14.8125 15.367188 -17.15625 11.703125 -17.15625 C 9.921875 -17.15625 8.554688 -16.582031 7.609375 -15.4375 C 6.671875 -14.289062 6.203125 -12.519531 6.203125 -10.125 C 6.203125 -5.457031 8.035156 -3.125 11.703125 -3.125 Z M 11.703125 -3.125 "/></g></g></g><g fill="#1e3a8a" fill-opacity="1"><g transform="translate(174.825159, 40.583244)"><g><path d="M 13.859375 -4.015625 L 14.984375 -1.0625 C 14.472656 -0.601562 13.8125 -0.25 13 0 C 12.195312 0.257812 11.304688 0.390625 10.328125 0.390625 C 8.296875 0.390625 6.742188 -0.144531 5.671875 -1.21875 C 4.609375 -2.300781 4.078125 -3.914062 4.078125 -6.0625 L 4.078125 -17.03125 L 0.765625 -17.03125 L 0.765625 -20.28125 L 4.078125 -20.28125 L 4.078125 -24.390625 L 8.125 -25.0625 L 8.125 -20.28125 L 14.25 -20.28125 L 14.25 -17.03125 L 8.125 -17.03125 L 8.125 -6.390625 C 8.125 -5.265625 8.359375 -4.453125 8.828125 -3.953125 C 9.296875 -3.453125 9.972656 -3.203125 10.859375 -3.203125 C 11.847656 -3.203125 12.71875 -3.472656 13.46875 -4.015625 Z M 13.859375 -4.015625 "/></g></g></g><g fill="#1e3a8a" fill-opacity="1"><g transform="translate(190.420524, 40.583244)"><g><path d="M 5.25 -23.4375 C 4.476562 -23.4375 3.847656 -23.675781 3.359375 -24.15625 C 2.867188 -24.632812 2.625 -25.25 2.625 -26 C 2.625 -26.726562 2.867188 -27.332031 3.359375 -27.8125 C 3.847656 -28.289062 4.476562 -28.53125 5.25 -28.53125 C 6.019531 -28.53125 6.65625 -28.289062 7.15625 -27.8125 C 7.65625 -27.332031 7.90625 -26.726562 7.90625 -26 C 7.90625 -25.25 7.660156 -24.632812 7.171875 -24.15625 C 6.679688 -23.675781 6.039062 -23.4375 5.25 -23.4375 Z M 3.234375 0 L 3.234375 -20.265625 L 7.28125 -20.265625 L 7.28125 0 Z M 3.234375 0 "/></g></g></g></g></g></svg>