<svg xmlns="http://www.w3.org/2000/svg" xmlns:xlink="http://www.w3.org/1999/xlink" width="100" zoomAndPan="magnify" viewBox="0 0 75 74.999997" height="100" preserveAspectRatio="xMidYMid meet" version="1.0"><defs><clipPath id="61687ab5d7"><path d="M 23 23 L 39 23 L 39 68.640625 L 23 68.640625 Z M 23 23 " clip-rule="nonzero"/></clipPath><clipPath id="58a32ac35e"><path d="M 8 7 L 69.195312 7 L 69.195312 68.640625 L 8 68.640625 Z M 8 7 " clip-rule="nonzero"/></clipPath></defs><rect x="-7.5" width="90" fill="#ffffff" y="-7.5" height="89.999996" fill-opacity="1"/><rect x="-7.5" width="90" fill="#ffffff" y="-7.5" height="89.999996" fill-opacity="1"/><path fill="#1e3a8a" d="M 21.394531 18.324219 C 21.238281 18.167969 21.054688 18.046875 20.851562 17.960938 C 20.644531 17.875 20.429688 17.835938 20.207031 17.835938 C 19.984375 17.835938 19.769531 17.875 19.566406 17.960938 C 19.359375 18.046875 19.179688 18.167969 19.019531 18.324219 C 18.613281 18.730469 18.226562 19.160156 17.859375 19.605469 C 17.496094 20.046875 17.152344 20.511719 16.832031 20.988281 C 16.511719 21.46875 16.21875 21.960938 15.945312 22.46875 C 15.675781 22.976562 15.429688 23.496094 15.207031 24.03125 C 14.988281 24.5625 14.792969 25.105469 14.625 25.65625 C 14.460938 26.207031 14.320312 26.765625 14.207031 27.328125 C 14.09375 27.894531 14.011719 28.460938 13.953125 29.035156 C 13.898438 29.609375 13.867188 30.183594 13.867188 30.757812 C 13.867188 31.335938 13.898438 31.910156 13.953125 32.484375 C 14.011719 33.054688 14.09375 33.625 14.207031 34.191406 C 14.320312 34.753906 14.460938 35.3125 14.625 35.863281 C 14.792969 36.414062 14.988281 36.957031 15.207031 37.488281 C 15.429688 38.019531 15.675781 38.542969 15.945312 39.050781 C 16.21875 39.558594 16.511719 40.050781 16.832031 40.53125 C 17.152344 41.007812 17.496094 41.46875 17.859375 41.914062 C 18.226562 42.359375 18.613281 42.785156 19.019531 43.195312 C 19.179688 43.351562 19.359375 43.472656 19.566406 43.558594 C 19.769531 43.640625 19.984375 43.683594 20.207031 43.683594 C 20.429688 43.683594 20.644531 43.640625 20.851562 43.558594 C 21.054688 43.472656 21.238281 43.351562 21.394531 43.191406 C 21.550781 43.035156 21.671875 42.855469 21.757812 42.648438 C 21.84375 42.441406 21.886719 42.230469 21.886719 42.007812 C 21.886719 41.785156 21.84375 41.570312 21.757812 41.363281 C 21.675781 41.15625 21.554688 40.976562 21.394531 40.820312 C 20.734375 40.15625 20.144531 39.441406 19.625 38.664062 C 19.105469 37.886719 18.667969 37.066406 18.3125 36.203125 C 17.953125 35.339844 17.683594 34.449219 17.5 33.535156 C 17.320312 32.617188 17.226562 31.695312 17.226562 30.757812 C 17.226562 29.824219 17.320312 28.898438 17.5 27.984375 C 17.683594 27.066406 17.953125 26.179688 18.3125 25.316406 C 18.667969 24.453125 19.105469 23.632812 19.625 22.855469 C 20.144531 22.078125 20.734375 21.359375 21.394531 20.699219 C 21.554688 20.542969 21.675781 20.363281 21.761719 20.15625 C 21.84375 19.949219 21.886719 19.734375 21.886719 19.511719 C 21.886719 19.289062 21.84375 19.074219 21.761719 18.871094 C 21.675781 18.664062 21.554688 18.484375 21.394531 18.324219 Z M 21.394531 18.324219 " fill-opacity="1" fill-rule="nonzero"/><g clip-path="url(#61687ab5d7)"><path fill="#1e3a8a" d="M 37.273438 26.003906 C 37.449219 25.746094 37.542969 25.464844 37.5625 25.152344 C 37.578125 24.84375 37.511719 24.550781 37.367188 24.277344 C 37.222656 24 37.015625 23.785156 36.75 23.621094 C 36.484375 23.460938 36.195312 23.382812 35.882812 23.382812 L 26.054688 23.382812 C 25.742188 23.382812 25.453125 23.460938 25.1875 23.621094 C 24.921875 23.785156 24.714844 24 24.570312 24.277344 C 24.425781 24.550781 24.359375 24.84375 24.375 25.152344 C 24.394531 25.464844 24.488281 25.746094 24.664062 26.003906 L 29.230469 32.730469 L 23.285156 59.113281 C 23.160156 59.664062 23.28125 60.15625 23.652344 60.582031 L 29.699219 67.566406 C 29.859375 67.75 30.050781 67.894531 30.269531 67.996094 C 30.492188 68.097656 30.726562 68.148438 30.96875 68.148438 C 31.210938 68.148438 31.445312 68.097656 31.667969 67.996094 C 31.886719 67.894531 32.078125 67.75 32.238281 67.566406 L 38.285156 60.582031 C 38.65625 60.15625 38.777344 59.664062 38.65625 59.113281 L 32.707031 32.730469 Z M 37.273438 26.003906 " fill-opacity="1" fill-rule="nonzero"/></g><g clip-path="url(#58a32ac35e)"><path fill="#1e3a8a" d="M 69.097656 63.671875 C 69.09375 64.976562 68.636719 66.097656 67.726562 67.03125 C 67.503906 67.25 67.265625 67.445312 67.003906 67.613281 C 66.742188 67.785156 66.46875 67.929688 66.183594 68.046875 C 65.894531 68.164062 65.597656 68.253906 65.292969 68.3125 C 64.988281 68.375 64.679688 68.402344 64.367188 68.402344 C 64.058594 68.402344 63.75 68.375 63.445312 68.3125 C 63.136719 68.253906 62.839844 68.164062 62.554688 68.046875 C 62.265625 67.929688 61.992188 67.785156 61.730469 67.613281 C 61.472656 67.445312 61.230469 67.25 61.007812 67.03125 L 44.242188 50.265625 C 42.75 51.25 41.164062 52.042969 39.484375 52.644531 L 38.753906 49.367188 C 39.839844 48.941406 40.875 48.417969 41.863281 47.800781 C 42.832031 47.238281 43.726562 46.574219 44.550781 45.8125 C 45.277344 45.234375 45.929688 44.582031 46.507812 43.855469 C 47.269531 43.03125 47.933594 42.136719 48.496094 41.167969 C 49.144531 40.105469 49.6875 38.992188 50.128906 37.828125 C 50.570312 36.664062 50.898438 35.46875 51.113281 34.242188 C 51.332031 33.019531 51.433594 31.78125 51.417969 30.539062 C 51.402344 29.292969 51.273438 28.0625 51.027344 26.839844 C 50.785156 25.621094 50.429688 24.433594 49.960938 23.28125 C 49.496094 22.125 48.925781 21.027344 48.253906 19.980469 C 47.578125 18.933594 46.816406 17.957031 45.960938 17.050781 C 45.105469 16.148438 44.175781 15.332031 43.167969 14.601562 C 42.160156 13.871094 41.09375 13.238281 39.964844 12.710938 C 38.839844 12.179688 37.675781 11.757812 36.46875 11.445312 C 35.265625 11.132812 34.042969 10.933594 32.800781 10.847656 C 31.558594 10.765625 30.320312 10.796875 29.085938 10.945312 C 27.847656 11.09375 26.636719 11.351562 25.449219 11.726562 C 24.265625 12.101562 23.121094 12.582031 22.023438 13.171875 C 20.929688 13.757812 19.894531 14.441406 18.925781 15.222656 C 17.957031 16.003906 17.070312 16.867188 16.261719 17.816406 C 15.453125 18.761719 14.742188 19.777344 14.125 20.855469 C 13.503906 21.9375 12.992188 23.066406 12.585938 24.242188 C 12.179688 25.417969 11.886719 26.621094 11.703125 27.851562 C 11.523438 29.082031 11.457031 30.320312 11.503906 31.5625 C 11.554688 32.808594 11.71875 34.035156 12 35.25 C 12.277344 36.460938 12.667969 37.636719 13.167969 38.777344 C 13.664062 39.917969 14.265625 41 14.96875 42.027344 C 15.671875 43.058594 16.460938 44.011719 17.339844 44.890625 C 19.058594 46.625 21.039062 47.976562 23.277344 48.949219 L 22.519531 52.28125 C 19.65625 51.128906 17.136719 49.460938 14.960938 47.269531 C 14.445312 46.753906 13.953125 46.214844 13.488281 45.652344 C 13.023438 45.089844 12.585938 44.507812 12.171875 43.902344 C 11.761719 43.296875 11.378906 42.675781 11.027344 42.039062 C 10.675781 41.398438 10.351562 40.742188 10.0625 40.074219 C 9.769531 39.402344 9.511719 38.722656 9.285156 38.027344 C 9.058594 37.332031 8.863281 36.628906 8.703125 35.917969 C 8.542969 35.207031 8.414062 34.488281 8.320312 33.761719 C 8.226562 33.039062 8.167969 32.3125 8.144531 31.582031 C 8.117188 30.851562 8.125 30.121094 8.171875 29.394531 C 8.214844 28.664062 8.289062 27.9375 8.402344 27.214844 C 8.515625 26.496094 8.660156 25.78125 8.835938 25.070312 C 9.015625 24.363281 9.226562 23.664062 9.472656 22.976562 C 9.714844 22.289062 9.992188 21.613281 10.300781 20.953125 C 10.609375 20.289062 10.945312 19.640625 11.316406 19.011719 C 11.683594 18.382812 12.082031 17.769531 12.507812 17.175781 C 12.933594 16.582031 13.386719 16.011719 13.863281 15.460938 C 14.34375 14.910156 14.847656 14.382812 15.378906 13.878906 C 15.90625 13.375 16.460938 12.898438 17.03125 12.449219 C 17.605469 11.996094 18.203125 11.574219 18.816406 11.175781 C 19.429688 10.78125 20.058594 10.414062 20.707031 10.078125 C 21.355469 9.742188 22.019531 9.4375 22.695312 9.164062 C 23.375 8.890625 24.0625 8.648438 24.761719 8.4375 C 25.460938 8.226562 26.167969 8.050781 26.886719 7.910156 C 27.601562 7.765625 28.324219 7.65625 29.050781 7.582031 C 29.777344 7.507812 30.503906 7.464844 31.234375 7.460938 C 31.964844 7.453125 32.695312 7.480469 33.421875 7.542969 C 34.148438 7.605469 34.871094 7.699219 35.589844 7.828125 C 36.308594 7.960938 37.019531 8.121094 37.722656 8.320312 C 38.425781 8.515625 39.121094 8.746094 39.800781 9.007812 C 40.484375 9.269531 41.152344 9.5625 41.804688 9.886719 C 42.460938 10.210938 43.097656 10.5625 43.71875 10.949219 C 44.339844 11.332031 44.941406 11.746094 45.523438 12.1875 C 46.105469 12.628906 46.667969 13.09375 47.203125 13.585938 C 47.742188 14.082031 48.257812 14.597656 48.746094 15.140625 C 49.238281 15.683594 49.699219 16.246094 50.136719 16.832031 C 50.574219 17.417969 50.980469 18.019531 51.363281 18.644531 C 51.742188 19.269531 52.09375 19.910156 52.410156 20.566406 C 52.730469 21.222656 53.019531 21.890625 53.277344 22.574219 C 53.535156 23.257812 53.757812 23.953125 53.949219 24.660156 C 54.140625 25.363281 54.300781 26.074219 54.425781 26.792969 C 54.550781 27.515625 54.640625 28.238281 54.695312 28.964844 C 54.753906 29.695312 54.777344 30.421875 54.765625 31.152344 C 54.753906 31.882812 54.707031 32.613281 54.625 33.339844 C 54.546875 34.0625 54.429688 34.785156 54.285156 35.5 C 54.136719 36.214844 53.953125 36.921875 53.742188 37.621094 C 53.527344 38.316406 53.28125 39.003906 53 39.679688 C 52.722656 40.355469 52.410156 41.015625 52.070312 41.660156 C 51.730469 42.308594 51.359375 42.9375 50.960938 43.546875 L 67.726562 60.3125 C 68.636719 61.25 69.09375 62.367188 69.097656 63.671875 Z M 69.097656 63.671875 " fill-opacity="1" fill-rule="nonzero"/></g></svg>